# xmcd
#
# Track frame offsets:
#	150
#	17487
#	30310
#	45875
#
# Disc length: 982 seconds
#
# Revision: 0
# Processed by: cddbd v1.4PL0 Copyright (c) Steve Scherf et al.
# Submitted via: dBpowerAMP V4.0
#
DISCID=1a03d404
DTITLE=Troy Cassar-Daley - Ramblin' Man
DYEAR=1900
DGENRE=Country
TTITLE0=Ramblin' Man
TTITLE1=Texas Swing
TTITLE2=Bitter Tears
TTITLE3=River of Sorrow
EXTD=
EXTT0=
EXTT1=
EXTT2=
EXTT3=
PLAYORDER=
